<svg xmlns="http://www.w3.org/2000/svg" xmlns:osb="http://www.openswatchbook.org/uri/2009/osb" xmlns:svg="http://www.w3.org/2000/svg" id="svg7384" width="16" height="16" version="1.1"><metadata id="metadata90"/><title id="title9167">Gnome Symbolic Icon Theme</title><defs id="defs7386"><linearGradient id="linearGradient5351" osb:paint="solid"><stop style="stop-color:#00a600;stop-opacity:1" id="stop5353" offset="0"/></linearGradient><marker id="EmptyTriangleOutS" orient="auto" refX="0" refY="0" style="overflow:visible"><path id="path4013" d="m 5.77,0 -8.65,5 0,-10 8.65,5 z" transform="matrix(0.2,0,0,0.2,-0.6,0)" style="fill:#fff;fill-rule:evenodd;stroke:#000;stroke-width:1pt"/></marker><marker id="Legs" orient="auto" refX="0" refY="0" style="overflow:visible"><g id="g4046" transform="scale(-0.7,-0.7)"><g id="g4048" transform="matrix(0,-1,-1,0,20.70862,21.31391)"><path id="path4050" d="m 21.22125,20.67536 c -6.910151,4.721157 -2.454525,6.606844 -5.841071,13.443235" style="fill:none;stroke:#000;stroke-width:1pt"/><path id="path4052" d="m 21.39811,20.54812 c -1.360509,8.347524 3.536072,8.76994 4.505041,13.824958" style="fill:none;stroke:#000;stroke-width:1pt"/></g><path id="path4054" d="m -14.09007,-6.7318716 -0.922168,4.043383 3.962751,-1.22307 -3.040583,-2.820313 z" style="fill:#030300;fill-rule:evenodd;stroke-width:1pt"/><path id="path4056" d="m -15.215679,4.5567534 1.874127,3.699613 2.266874,-3.472855 -4.141001,-0.226758 z" style="fill:#030300;fill-rule:evenodd;stroke-width:1pt"/></g></marker><marker id="Torso" orient="auto" refX="0" refY="0" style="overflow:visible"><g id="g4059" transform="scale(0.7,0.7)"><path id="path4061" d="m -4.7792281,-3.239542 c 2.350374,0.3659393 5.30026732,1.9375477 5.03715532,3.62748546 C -0.00518779,2.0778819 -2.2126741,2.6176539 -4.5630471,2.2517169 -6.9134221,1.8857769 -8.521035,0.75201414 -8.257922,-0.93792336 -7.994809,-2.6278615 -7.1296041,-3.6054813 -4.7792281,-3.239542 z" style="fill:none;stroke:#000;stroke-width:1.25"/><path id="path4063" d="M 4.4598789,0.08866574 C -2.5564571,-4.378332 5.2248769,-3.9061806 -0.84829578,-8.7197331" style="fill:none;stroke:#000;stroke-width:1pt"/><path id="path4065" d="M 4.9298719,0.05752074 C -1.3872731,1.7494689 1.8027579,5.4782079 -4.9448731,7.5462725" style="fill:none;stroke:#000;stroke-width:1pt"/><rect id="rect4067" width="2.637" height="2.761" x="-10.392" y="-1.741" transform="matrix(0.527536,-0.849533,0.887668,0.460484,0,0)" style="fill-rule:evenodd;stroke-width:1pt"/><rect id="rect4069" width="2.733" height="2.861" x="4.959" y="-7.963" transform="matrix(0.671205,-0.741272,0.790802,0.612072,0,0)" style="fill-rule:evenodd;stroke-width:1pt"/><path id="path4071" d="m 16.779951,-28.685045 a 0.60731727,0.60731727 0 1 0 -1.214634,0 0.60731727,0.60731727 0 1 0 1.214634,0 z" transform="matrix(0,-1.109517,1.109517,0,25.96648,19.71619)" style="fill:red;fill-opacity:.75;fill-rule:evenodd;stroke:#000;stroke-width:1pt"/><path id="path4073" d="m 16.779951,-28.685045 a 0.60731727,0.60731727 0 1 0 -1.214634,0 0.60731727,0.60731727 0 1 0 1.214634,0 z" transform="matrix(0,-1.109517,1.109517,0,26.8245,16.99126)" style="fill:red;fill-opacity:.75;fill-rule:evenodd;stroke:#000;stroke-width:1pt"/></g></marker><marker id="EmptyDiamondLstart" orient="auto" refX="0" refY="0" style="overflow:visible"><path id="path3962" d="M 0,-7.0710768 -7.0710894,0 0,7.0710589 7.0710462,0 0,-7.0710768 z" transform="matrix(0.8,0,0,0.8,5.6,0)" style="fill:#fff;fill-rule:evenodd;stroke:#000;stroke-width:1pt"/></marker><marker id="DiamondSend" orient="auto" refX="0" refY="0" style="overflow:visible"><path id="path3950" d="M 0,-7.0710768 -7.0710894,0 0,7.0710589 7.0710462,0 0,-7.0710768 z" transform="matrix(0.2,0,0,0.2,-1.2,0)" style="fill-rule:evenodd;stroke:#000;stroke-width:1pt"/></marker><marker id="Arrow1Mend" orient="auto" refX="0" refY="0" style="overflow:visible"><path id="path3856" d="M 0,0 5,-5 -12.5,0 5,5 0,0 z" transform="matrix(-0.4,0,0,-0.4,-4,0)" style="fill-rule:evenodd;stroke:#000;stroke-width:1pt"/></marker><marker id="Tail" orient="auto" refX="0" refY="0" style="overflow:visible"><g id="g3883" transform="scale(-1.2,-1.2)"><path id="path3885" d="M -3.8048674,-3.9585227 0.54352094,0" style="fill:none;stroke:#000;stroke-width:.80000001;stroke-linecap:round"/><path id="path3887" d="M -1.2866832,-3.9585227 3.0617053,0" style="fill:none;stroke:#000;stroke-width:.80000001;stroke-linecap:round"/><path id="path3889" d="M 1.3053582,-3.9585227 5.6537466,0" style="fill:none;stroke:#000;stroke-width:.80000001;stroke-linecap:round"/><path id="path3891" d="M -3.8048674,4.1775838 0.54352094,0.21974226" style="fill:none;stroke:#000;stroke-width:.80000001;stroke-linecap:round"/><path id="path3893" d="M -1.2866832,4.1775838 3.0617053,0.21974226" style="fill:none;stroke:#000;stroke-width:.80000001;stroke-linecap:round"/><path id="path3895" d="M 1.3053582,4.1775838 5.6537466,0.21974226" style="fill:none;stroke:#000;stroke-width:.80000001;stroke-linecap:round"/></g></marker><marker id="Arrow2Sstart" orient="auto" refX="0" refY="0" style="overflow:visible"><path id="path3877" d="M 8.7185878,4.0337352 -2.2072895,0.01601326 8.7185884,-4.0017078 c -1.7454984,2.3720609 -1.7354408,5.6174519 -6e-7,8.035443 z" transform="matrix(0.3,0,0,0.3,-0.69,0)" style="fill-rule:evenodd;stroke-width:.625;stroke-linejoin:round"/></marker><marker id="DotL" orient="auto" refX="0" refY="0" style="overflow:visible"><path id="path3908" d="m -2.5,-1 c 0,2.76 -2.24,5 -5,5 -2.76,0 -5,-2.24 -5,-5 0,-2.76 2.24,-5 5,-5 2.76,0 5,2.24 5,5 z" transform="matrix(0.8,0,0,0.8,5.92,0.8)" style="fill-rule:evenodd;stroke:#000;stroke-width:1pt"/></marker></defs><g id="layer11" transform="translate(-283.00021,-629)" style="display:inline"><g id="g3040" transform="matrix(-1,0,0,1,581.99582,0)"><path id="path3795-3" d="m 283.60374,629.58458 0,12.86095 14.78834,-1.16918 0,-10.5226 -14.78834,-1.16917 z m 0.73172,0.65766 13.28639,1.05957 0,9.46303 -13.32491,1.02303 0.0385,-11.54563 z" style="fill:#bebebe;fill-opacity:1;fill-rule:nonzero;stroke:#bebebe;stroke-width:1.20035386;stroke-linecap:butt;stroke-linejoin:round;stroke-miterlimit:4;stroke-opacity:1;stroke-dasharray:none;display:inline"/><path id="path3839-5" d="m 290.99791,641.86094 -2e-5,2.33836" style="fill:#bebebe;fill-opacity:1;fill-rule:nonzero;stroke:#bebebe;stroke-width:3.60105371;stroke-linecap:butt;stroke-linejoin:bevel;stroke-miterlimit:4;stroke-opacity:1;stroke-dasharray:none;display:inline"/><path id="path3841-2" d="m 295.34001,643.66019 -8.13359,0.64305" style="fill:#bebebe;fill-opacity:1;fill-rule:nonzero;stroke:#bebebe;stroke-width:1.32038927;stroke-linecap:round;stroke-linejoin:bevel;stroke-miterlimit:4;stroke-opacity:1;stroke-dasharray:none;marker-start:none;display:inline"/></g></g></svg>